<svg id="Warstwa_1" data-name="Warstwa 1" xmlns="http://www.w3.org/2000/svg" xmlns:xlink="http://www.w3.org/1999/xlink" viewBox="0 0 995 723.4"><defs><style>.cls-1{fill:url(#Gradient_bez_nazwy_34);}.cls-2{fill:url(#Gradient_bez_nazwy_47);}.cls-3{fill:url(#Gradient_bez_nazwy_67);}.cls-4{fill:#1e1e1c;}.cls-5{fill:url(#Gradient_bez_nazwy_28);}.cls-6{fill:url(#Gradient_bez_nazwy_39);}.cls-7{fill:#fff;}</style><linearGradient id="Gradient_bez_nazwy_34" x1="64.8" y1="459.59" x2="309.13" y2="318.53" gradientUnits="userSpaceOnUse"><stop offset="0" stop-color="#ea9d00"/><stop offset="1" stop-color="#69430f"/></linearGradient><linearGradient id="Gradient_bez_nazwy_47" x1="546.67" y1="134.99" x2="885.35" y2="473.67" gradientTransform="translate(-37.37 498.5) rotate(-37.48)" gradientUnits="userSpaceOnUse"><stop offset="0" stop-color="#047cbf"/><stop offset="1" stop-color="#26377c"/></linearGradient><linearGradient id="Gradient_bez_nazwy_67" x1="984" y1="546.85" x2="318.57" y2="546.85" gradientUnits="userSpaceOnUse"><stop offset="0.22" stop-color="#49c2f1"/><stop offset="1" stop-color="#86368c"/></linearGradient><linearGradient id="Gradient_bez_nazwy_28" x1="172.2" y1="688.62" x2="553.65" y2="307.16" gradientUnits="userSpaceOnUse"><stop offset="0" stop-color="#981869"/><stop offset="1" stop-color="#684595"/></linearGradient><linearGradient id="Gradient_bez_nazwy_39" x1="550.45" y1="171.59" x2="110.67" y2="425.5" gradientUnits="userSpaceOnUse"><stop offset="0" stop-color="#e52320"/><stop offset="1" stop-color="#931250"/></linearGradient></defs><title>Logo Matez-normal</title><path class="cls-1" d="M385.05,450l-172.89,153Q128.09,513.32,44,423.56l78.41-225.78Z" transform="translate(-16.5 -50.66)"/><rect class="cls-2" x="494.2" y="154.75" width="443.62" height="299.17" transform="translate(316.48 -423.51) rotate(37.48)"/><path class="cls-3" d="M984,689l-380.72,85-284.71-373L984,319.64Z" transform="translate(-16.5 -50.66)"/><path class="cls-4" d="M210.27,676.75" transform="translate(-16.5 -50.66)"/><path class="cls-5" d="M320.36,291.3,232.94,395.22,125.25,760.83,534.31,575.66q28.35-56,56.68-112Z" transform="translate(-16.5 -50.66)"/><path class="cls-4" d="M448.34,776.89" transform="translate(-16.5 -50.66)"/><path class="cls-6" d="M572.38,477.74,49.72,319.93,203.92,52.85,488.3,64Q530.35,270.85,572.38,477.74Z" transform="translate(-16.5 -50.66)"/><rect y="231.08" width="995" height="250.07"/><polygon class="cls-7" points="540.14 287.54 471.47 374.16 471.47 287.54 540.14 287.54"/><polygon class="cls-7" points="567.49 374.16 636.16 287.54 636.16 374.16 567.49 374.16"/><polygon class="cls-7" points="523.74 400.34 613.16 287.54 562.68 287.54 442.85 438.7 493.33 438.7 523.74 400.34"/><polygon class="cls-7" points="859.47 287.54 790.8 374.16 790.8 287.54 859.47 287.54"/><polygon class="cls-7" points="843.07 400.34 932.49 287.54 882.01 287.54 762.18 438.7 812.66 438.7 908.68 438.7 938.97 400.34 843.07 400.34"/><polygon class="cls-7" points="710.58 393.55 675.06 438.37 735.08 438.37 770.26 393.55 710.58 393.55"/><polygon class="cls-7" points="710.58 332.36 675.06 287.54 770.26 287.54 770.26 332.36 710.58 332.36"/><polygon class="cls-7" points="453.78 287.54 453.73 287.54 417.48 287.54 403.29 287.54 283.46 438.7 333.94 438.7 417.48 333.32 417.48 438.7 453.73 393.88 453.73 287.6 453.78 287.54"/><polygon class="cls-7" points="655.53 287.54 655.53 345.12 655.53 379.23 655.53 438.7 691.77 393.88 691.77 379.18 691.77 345.18 691.77 332.36 655.53 287.54"/><polygon class="cls-7" points="295.27 287.54 259.03 287.54 244.84 287.54 175.67 374.78 106.51 287.54 92.32 287.54 56.08 287.54 56.03 287.54 56.08 287.6 56.08 393.88 92.32 438.7 92.32 333.32 150.43 406.63 125.01 438.7 175.49 438.7 175.67 438.47 175.86 438.7 226.34 438.7 200.92 406.63 259.03 333.32 259.03 438.7 295.27 393.88 295.27 287.6 295.32 287.54 295.27 287.54"/><rect class="cls-7" x="710.11" y="350.18" width="60.15" height="23.98"/></svg>